<svg xmlns="http://www.w3.org/2000/svg" xmlns:xlink="http://www.w3.org/1999/xlink" version="1.1" id="Capa_1" x="0px" y="0px" viewBox="0 0 200 200" style="fill: rgba(0, 0, 0, 0.5);" xml:space="preserve">
<g>
    <path d="M193.834,169.463l-32.859-32.87c-1.137-1.138-2.599-1.765-4.116-1.765c-1.772,0-3.472,0.854-4.661,2.346   c-4.127,5.168-8.843,9.886-14.016,14.021c-1.412,1.129-2.241,2.676-2.334,4.354c-0.091,1.631,0.533,3.203,1.756,4.426   l32.859,32.859c3.122,3.123,7.272,4.843,11.686,4.843c0.001,0,0.001,0,0.001,0c2.496,0,4.996-0.575,7.229-1.662   c2.784-1.355,6.28-4.852,7.635-7.635C200.096,182.048,198.817,174.446,193.834,169.463z"></path>
    <path d="M82.967,162.61c43.916,0,79.644-35.728,79.644-79.644c0-43.916-35.728-79.643-79.644-79.643   c-43.915,0-79.643,35.728-79.643,79.643C3.324,126.883,39.052,162.61,82.967,162.61z M99.493,138.377   c0.822-1.888,3.776-3.751,6.271-4.616l0.251-0.087l0.205-0.167c3.635-2.962,7.021-6.27,10.066-9.832   c2.068-2.422,3.902-4.877,5.451-7.296l0.655-1.013c2.238-3.444,5.305-8.161,5.401-12.029c0.113-4.566-4.661-5.523-8.147-6.222   c-1.887-0.378-3.839-0.77-4.611-1.514c-0.604-0.582-1.143-1.252-1.715-1.963c-0.541-0.674-1.102-1.371-1.746-2.023   c-2.474-2.499-5.746-3.888-8.632-5.114c-0.582-0.248-1.361-0.638-2.264-1.091c-3.068-1.54-7.27-3.648-10.68-3.648   c-2.416,0-3.789,1.054-4.587,2.164c-0.042-0.018-0.082-0.035-0.117-0.05l-0.259-0.109c-1.101-0.443-2.187-0.659-3.237-0.869   c-1.69-0.337-3.025-0.603-3.97-1.665c-0.944-1.061-1.233-1.741-1.344-3.164c-0.014-0.179,0.021-0.492,0.056-0.795   c0.103-0.921,0.242-2.184-0.603-3.128c-0.521-0.583-1.27-0.878-2.225-0.878c-0.259,0-0.551,0.021-0.882,0.072l-0.438,0.068   c-0.764,0.121-1.449,0.239-2.121,0.162c-0.065-0.008-0.102-0.023-0.119-0.017c-0.423-0.825,1.341-5.193,2.679-6.047   c1.384-0.781,3.581-0.768,4.846,0.05c0.286,0.185,0.585,0.436,0.874,0.678c0.718,0.601,1.531,1.281,2.583,1.281   c0.601,0,1.472-0.229,2.21-1.317c0.757-1.118,0.929-2.3,1.079-3.343c0.085-0.587,0.166-1.142,0.343-1.61   c0.302-0.795,0.823-1.522,1.375-2.292c0.393-0.548,0.799-1.115,1.162-1.751c1.072-1.878,2.181-3.821,3.752-5.188   c1.918-1.67,4.514-2.497,7.024-3.296c0.257-0.082,0.726-0.202,1.323-0.356c5.79-1.497,9.071-2.666,9.833-4.556   c0.275-0.684,0.212-1.411-0.18-2.047c-0.553-0.898-1.511-1.448-2.662-1.541c0.176-0.401,0.283-0.84,0.318-1.307   c0.086-1.131-0.262-2.285-0.776-3.281c1.853,2.149,4.669,3.979,7.119,3.979c1.105,0,2.107-0.364,2.896-1.052   c0.626-0.547,1.141-1.108,1.594-1.604c0.66-0.72,1.229-1.342,1.633-1.342c0.193,0,0.774,0.113,1.989,1.162   c12.97,11.192,20.408,27.3,20.408,44.194c0,25.469-16.365,47.846-40.724,55.683c-0.61,0.196-1.16,0.305-1.55,0.305   c-0.005,0-0.009,0-0.013,0C99.324,138.816,99.385,138.628,99.493,138.377z M103.93,33.729c0.064,0.617,0.3,1.291,0.666,1.976   c-2.857-3.212-6.623-5.298-10.312-7.008c1.17-0.308,1.796-1.017,2.219-1.496c0.278-0.316,0.422-0.472,0.638-0.553   c0.14-0.053,0.326-0.08,0.554-0.08c0.786,0,1.8,0.313,2.694,0.59c0.334,0.104,0.65,0.201,0.914,0.272   c0.337,0.111,1.896,0.881,2.926,1.391c0.357,0.177,0.675,0.333,0.958,0.472C104.248,30.555,103.764,32.159,103.93,33.729z    M83.575,28.294c-0.748,1.319-0.517,2.736-0.331,3.875l0.061,0.379c0.338,2.236-0.004,4.596-0.962,6.643   c-0.027,0.057-0.052,0.107-0.075,0.151c-0.143-0.219-0.299-0.505-0.408-0.707c-0.094-0.171-0.186-0.339-0.276-0.495   c-1.534-2.631-4.432-3.323-6.761-3.879c-0.733-0.176-1.428-0.341-2.042-0.55c-1.504-0.509-2.968-1.678-2.855-2.928   c0.065-0.739,0.681-1.543,1.879-2.458c3.335-2.547,7.009-4.067,9.829-4.067c1.381,0,2.6,0.352,3.625,1.046l0.272,0.185   c0.391,0.266,0.836,0.569,1.322,0.882C85.383,26.47,84.228,27.145,83.575,28.294z M35.166,60.913   c0.706,0.926,1.617,1.507,2.422,2.019c0.724,0.461,1.349,0.86,1.748,1.449c0.902,1.26,2.167,1.855,3.283,2.38   c0.911,0.429,1.698,0.799,2.167,1.476c0.767,1.05,1.583,2.071,2.372,3.06c0.484,0.606,0.97,1.213,1.462,1.851   c0.23,0.286,0.43,0.692,0.641,1.123c0.475,0.967,1.064,2.171,2.402,2.82c1.647,0.837,3.388,1.172,5.07,1.497   c1.831,0.353,3.56,0.686,5.049,1.684c1.319,0.771,2.627,1.57,3.937,2.371c3.931,2.403,7.996,4.888,12.336,6.569   c0.991,0.461,2.068,0.544,3.02,0.617c0.259,0.02,0.518,0.04,0.772,0.068c0.503,0.055,0.874,0.191,0.968,0.354   c0.385,0.668-0.598,2.883-1.017,3.829c-0.263,0.593-0.49,1.105-0.626,1.552c-1.282,4.204-0.006,9.694,3.104,13.351   c0.784,0.921,1.666,1.731,2.519,2.516c1.403,1.291,2.729,2.511,3.438,4.042c1.076,2.321,0.665,5.138,0.062,8.313   c-0.151,0.8-0.28,1.964-0.442,3.438c-0.194,1.769-0.437,3.97-0.794,6.091c-1.205,7.167-2.858,7.924-3.335,7.984   c-0.819,0.104-1.789,0.211-2.758,0.211c-32.317,0-58.61-26.293-58.61-58.61c0-10.204,2.752-20.291,7.964-29.225   C32.56,56.162,33.318,58.801,35.166,60.913z"></path>
</g>
</svg>