<?xml version="1.0" encoding="utf-8"?>
<!-- Generator: Adobe Illustrator 16.0.4, SVG Export Plug-In . SVG Version: 6.00 Build 0)  -->
<!DOCTYPE svg PUBLIC "-//W3C//DTD SVG 1.1//EN" "http://www.w3.org/Graphics/SVG/1.1/DTD/svg11.dtd">
<svg version="1.1" id="Capa_1" xmlns="http://www.w3.org/2000/svg" xmlns:xlink="http://www.w3.org/1999/xlink" x="0px" y="0px"
	 width="16.943px" height="18.27px" viewBox="0 0 16.943 18.27" enable-background="new 0 0 16.943 18.27" xml:space="preserve" >
<path d="M8.431,0.001L0.001,1.825v12.039l0.121,0.037v1.781l8.324,2.588l8.375-2.588v-1.781l0.121-0.037V1.825L8.431,0.001z
	 M0.665,2.247l0.006,0.002l7.761-1.683l7.796,1.67v0.021L8.446,4.318L0.671,2.249H0.665V2.247z M0.219,4.564l8.229,2.345
	l8.279-2.283v1.106l-8.28,2.312L0.219,5.73V4.564z M16.624,14.571c-0.213,0.068-8.045,2.494-8.139,2.523
	c-0.088-0.029-7.33-2.33-8.081-2.568v-0.492l8.103,2.545l8.118-2.549V14.571z M8.386,18.008l-7.981-2.539V14.86l8.08,2.568
	l8.141-2.52v0.561L8.386,18.008z"/>
</svg>
