<?xml version="1.0" encoding="utf-8"?>
<!-- Generator: Adobe Illustrator 16.0.4, SVG Export Plug-In . SVG Version: 6.00 Build 0)  -->
<!DOCTYPE svg PUBLIC "-//W3C//DTD SVG 1.1//EN" "http://www.w3.org/Graphics/SVG/1.1/DTD/svg11.dtd">
<svg version="1.1" id="Layer_1" xmlns="http://www.w3.org/2000/svg" xmlns:xlink="http://www.w3.org/1999/xlink" x="0px" y="0px"
	 width="26px" height="26px" viewBox="0 0 26 26" enable-background="new 0 0 26 26" xml:space="preserve">
<g>
	<path fill="#333333" d="M25.329,21.885l-4.614-4.615c-0.581-0.581-1.456-0.681-2.146-0.313l-0.876-0.876
		c1.324-1.672,2.12-3.781,2.12-6.08c0-5.42-4.393-9.812-9.812-9.812S0.188,4.58,0.188,10S4.58,19.812,10,19.812
		c2.298,0,4.406-0.796,6.079-2.118l0.876,0.876c-0.365,0.689-0.266,1.562,0.316,2.144l4.613,4.615c0.713,0.714,1.869,0.714,2.583,0
		l0.861-0.86C26.042,23.755,26.042,22.598,25.329,21.885z M2.002,10c0-4.418,3.58-7.997,7.998-7.997S17.998,5.582,17.998,10
		s-3.58,7.997-7.998,7.997S2.002,14.418,2.002,10z"/>
	<polygon fill="#333333" points="11,5 9,5 9,9 5,9 5,11 9,11 9,15 11,15 11,11 15,11 15,9 11,9 	"/>
</g>
</svg>
